<?xml version="1.0" encoding="UTF-8"?>
<svg width="46px" height="46px" viewBox="0 0 46 46" version="1.1" xmlns="http://www.w3.org/2000/svg" xmlns:xlink="http://www.w3.org/1999/xlink">
    <title>phone_ico</title>
    <g id="Page-1" stroke="none" stroke-width="1" fill="none" fill-rule="evenodd">
        <g id="phone_ico" fill="#4D4D4D">
            <path d="M22.568,1.684 C10.713,1.684 1.068,11.329 1.068,23.184 C1.068,35.039 10.713,44.684 22.568,44.684 C34.424,44.684 44.068,35.039 44.068,23.184 C44.068,11.329 34.424,1.684 22.568,1.684 Z M22.568,45.684 C10.162,45.684 0.068,35.59 0.068,23.184 C0.068,10.777 10.162,0.684 22.568,0.684 C34.975,0.684 45.068,10.777 45.068,23.184 C45.068,35.59 34.975,45.684 22.568,45.684 L22.568,45.684 Z" id="Fill-69"></path>
            <path d="M12.454,16.339 C12.408,20.438 14.292,24.695 17.639,28.043 L17.713,28.117 C21.004,31.408 25.222,33.299 29.279,33.299 L29.415,33.297 C29.71,33.059 29.991,32.809 30.252,32.55 C31.312,31.487 32.125,30.235 32.668,28.832 C32.733,28.667 32.577,28.145 32.451,28.019 C30.839,27.298 29.526,26.875 27.31,26.381 C26.998,26.39 26.689,26.463 26.614,26.519 L25.537,28.235 C25.06,29.011 23.739,29.104 22.782,28.402 C21.793,27.684 20.808,26.844 19.856,25.909 C18.919,24.955 18.077,23.969 17.349,22.971 C16.94,22.412 16.771,21.757 16.886,21.175 C16.967,20.757 17.193,20.415 17.522,20.212 L19.288,19.091 C19.322,19.02 19.401,18.59 19.376,18.454 C18.892,16.626 18.217,14.688 17.682,13.204 C17.632,13.188 17.304,13.068 17.031,13.068 C16.955,13.068 16.923,13.081 16.922,13.081 C15.517,13.625 14.265,14.44 13.201,15.503 C12.948,15.757 12.702,16.031 12.454,16.339 Z M29.279,34.299 C24.958,34.299 20.483,32.302 17.002,28.82 C13.347,25.164 11.352,20.571 11.457,16.148 L11.461,15.981 L11.564,15.851 C11.873,15.459 12.177,15.114 12.493,14.797 C13.657,13.634 15.024,12.743 16.56,12.149 C16.696,12.096 16.855,12.068 17.031,12.068 C17.563,12.068 18.436,12.352 18.622,12.863 C19.164,14.367 19.849,16.333 20.345,18.205 C20.438,18.563 20.335,19.613 19.823,19.936 L18.054,21.059 C17.934,21.133 17.887,21.267 17.867,21.366 C17.808,21.667 17.919,22.057 18.155,22.381 C18.856,23.34 19.666,24.289 20.563,25.202 C21.474,26.097 22.421,26.903 23.372,27.595 C23.854,27.949 24.517,27.981 24.689,27.704 L25.816,25.927 C26.107,25.476 26.949,25.378 27.249,25.378 C27.355,25.378 27.447,25.387 27.527,25.404 C29.819,25.916 31.181,26.355 32.923,27.146 C33.464,27.39 33.851,28.559 33.601,29.195 C33.008,30.727 32.118,32.095 30.958,33.259 C30.629,33.584 30.274,33.896 29.899,34.188 L29.77,34.291 L29.279,34.299 L29.279,34.299 Z" id="Fill-189"></path>
        </g>
    </g>
</svg>